# xmcd
#
# Track frame offsets: 
#        150
#        20609
#        42881
#        62282
#        82300
#        102096
#        125444
#        144060
#        167798
#        187900
#        206885
#        231348
#        253256
#
# Disc length: 3682 seconds
#
# Revision: 0
# Processed by: cddbd v1.5.2PL0 Copyright (c) Steve Scherf et al.
# Submitted via: ExactAudioCopyFreeDBPlugin 1.0
#
DISCID=b10e600d
DTITLE=Jennis - The Mirror
DYEAR=2019
DGENRE=blues
TTITLE0=You Never Know
TTITLE1=Go Viral
TTITLE2=Misunderstanding
TTITLE3=Sneak Past The Mirror
TTITLE4=Wide Awake
TTITLE5=Too Much Stuff
TTITLE6=Prison For Myself
TTITLE7=There's Only Love
TTITLE8=Familly Tree
TTITLE9=Run With The Wolves
TTITLE10=There In Your Bubble
TTITLE11=Mountaintop
TTITLE12=Get Up, Stand Up
EXTD=
EXTT0=
EXTT1=
EXTT2=
EXTT3=
EXTT4=
EXTT5=
EXTT6=
EXTT7=
EXTT8=
EXTT9=
EXTT10=
EXTT11=
EXTT12=
PLAYORDER=
